<svg width="99" height="104" viewBox="0 0 99 104" fill="none" xmlns="http://www.w3.org/2000/svg">
<g id="_x35_0">
<g id="Group">
<g id="Group 208">
<g id="Group_2">
<path id="Vector" d="M25.8972 95.2537C20.1472 96.2413 14.8602 92.5716 13.7192 86.8479L5.76992 46.5393C4.62899 40.8157 8.39941 35.1956 14.1362 34.1313L75.7426 21.9715C81.5429 20.8174 87.0731 24.5243 88.1505 30.3378L96.0998 70.6464C96.6505 73.3932 96.1147 76.2478 94.4638 78.5834C92.8895 80.906 90.4804 82.5037 87.7335 83.0544L26.2039 95.201C26.1272 95.2142 26.0505 95.2274 25.8972 95.2537ZM76.1964 23.2353C76.1198 23.2485 76.0431 23.2617 75.9664 23.2748L14.3601 35.4347C9.32643 36.4571 6.05084 41.2818 7.07326 46.3154L15.0226 86.6241C15.942 91.5176 20.7667 94.7931 25.6733 93.9504C25.75 93.9372 25.8267 93.924 25.9033 93.9109L87.5097 81.7511C89.9498 81.253 92.0787 79.8613 93.4625 77.8083C94.8463 75.7553 95.2945 73.3104 94.8732 70.8571L86.9239 30.5485C85.838 25.6047 81.1797 22.3794 76.1964 23.2353Z" fill="#143048"/>
</g>
<g id="Group 207">
<g id="Group_3">
<path id="Vector_2" d="M40.875 9.09677L30.2634 31.2695L31.4563 31.8404L42.0678 9.66764L40.875 9.09677Z" fill="#143048"/>
</g>
<g id="Group_4">
<path id="Vector_3" d="M43.2131 8.62659L42.3953 9.66577L65.0736 27.5141L65.8915 26.4749L43.2131 8.62659Z" fill="#143048"/>
</g>
<g id="Group_5">
<path id="Vector_4" d="M71.7495 22.607L14.1825 38.7865C9.14101 40.2473 6.215 45.4592 7.66314 50.4239L18.2677 88.0172C19.6517 93.0714 24.8637 95.9974 29.9052 94.5366L87.4722 78.3571C92.5137 76.8964 95.4397 71.6844 93.9916 66.7196L83.387 29.1264C82.0156 24.149 76.8037 21.223 71.7495 22.607Z" fill="#0278BE"/>
</g>
</g>
</g>
<g id="Group_6">
<path id="Vector_5" d="M66.0953 79.6225L69.9943 83.3464L55.8418 101.713L53.0386 85.5616L66.0953 79.6225Z" fill="#0278BE"/>
</g>
</g>
<g id="Group 209">
<g id="Group_7">
<path id="Vector_6" d="M45.4422 9.44913C45.4422 11.0827 44.1198 12.4051 42.4862 12.4051C40.8527 12.4051 39.4525 11.0827 39.4525 9.44913C39.4525 7.81557 40.7749 6.49316 42.4862 6.49316C44.1198 6.49316 45.4422 7.81557 45.4422 9.44913Z" fill="#143048"/>
</g>
<g id="Group_8">
<path id="Vector_7" d="M42.4856 7.81567C43.4191 7.81567 44.1192 8.59354 44.1192 9.44922C44.1192 10.3827 43.3413 11.0828 42.4856 11.0828C41.5521 11.0828 40.852 10.3049 40.852 9.44922C40.7742 8.59354 41.5521 7.81567 42.4856 7.81567Z" fill="#0278BE"/>
</g>
</g>
<g id="click here to apply">
<path d="M15.9601 59.4787C15.2509 56.861 16.5467 54.8067 19.0254 54.1351C19.9288 53.8903 20.8865 53.8919 21.6093 54.0815L21.634 55.6413C20.9427 55.5675 20.2101 55.6168 19.6426 55.7706C18.2642 56.144 17.3995 57.174 17.8765 58.9346C18.3724 60.7646 19.6262 61.1708 21.0045 60.7974C21.5721 60.6436 22.2419 60.3626 22.7889 59.9036L23.5549 61.2626C23.0478 61.8227 22.2008 62.276 21.2974 62.5207C18.8188 63.1923 16.6694 62.0963 15.9601 59.4787Z" fill="white"/>
<path d="M29.7239 58.3603L30.0674 59.9953L24.9596 61.3793L22.7629 53.2716L24.6855 52.7507L26.4461 59.2484L29.7239 58.3603Z" fill="white"/>
<path d="M33.3182 59.1146L31.3955 59.6355L29.1988 51.5278L31.1215 51.0069L33.3182 59.1146Z" fill="white"/>
<path d="M33.6843 54.6764C32.9751 52.0587 34.271 50.0044 36.7496 49.3328C37.653 49.088 38.6108 49.0896 39.3335 49.2792L39.3583 50.839C38.6669 50.7652 37.9343 50.8145 37.3668 50.9683C35.9885 51.3417 35.1237 52.3717 35.6007 54.1323C36.0966 55.9623 37.3504 56.3685 38.7288 55.9951C39.2963 55.8413 39.9661 55.5603 40.5131 55.1013L41.2792 56.4603C40.772 57.0204 39.9251 57.4737 39.0216 57.7184C36.543 58.39 34.3936 57.294 33.6843 54.6764Z" fill="white"/>
<path d="M42.4098 47.9484L43.4422 51.759L45.1085 47.2172L47.1701 46.6586L45.4535 51.1519L49.4711 54.738L47.143 55.3688L43.4987 51.9675L44.6065 56.0561L42.6838 56.577L40.4871 48.4693L42.4098 47.9484Z" fill="white"/>
<path d="M58.2739 52.3529L57.3889 49.0867L54.3312 49.9152L55.2162 53.1814L53.2935 53.7024L51.0967 45.5947L53.0194 45.0737L53.9044 48.34L56.9621 47.5115L56.0772 44.2453L57.9998 43.7243L60.1966 51.832L58.2739 52.3529Z" fill="white"/>
<path d="M62.0481 51.3303L59.8514 43.2227L64.8318 41.8732L65.1534 43.4272L62.1883 44.2306L62.6716 46.0143L65.4977 45.2486L65.89 46.6964L63.0639 47.4621L63.5566 49.2805L66.7649 48.4112L67.0865 49.9652L62.0481 51.3303Z" fill="white"/>
<path d="M69.8214 46.0539L70.6216 49.0074L68.699 49.5283L66.5022 41.4206C67.132 41.1754 68.1788 40.8172 68.8042 40.6477C71.2249 39.9919 72.6393 40.7151 73.041 42.1977C73.3203 43.2285 73.0429 44.2237 72.2334 44.9528L74.9187 47.8431L72.8223 48.4111L70.5627 45.853L69.8214 46.0539ZM69.4668 44.7451L70.0343 44.5913C70.1501 44.5599 70.2512 44.5201 70.3408 44.4834C71.0748 44.2099 71.3421 43.5904 71.1444 42.8608C70.9279 42.0616 70.3106 41.7564 69.465 41.9855L68.7701 42.1738L69.4668 44.7451Z" fill="white"/>
<path d="M76.2433 47.4842L74.0466 39.3765L79.027 38.0271L79.3486 39.5811L76.3835 40.3845L76.8668 42.1681L79.6929 41.4024L80.0852 42.8502L77.2591 43.6159L77.7518 45.4344L80.9601 44.5651L81.2817 46.1191L76.2433 47.4842Z" fill="white"/>
<path d="M26.1934 70.6099L25.8593 69.0095L32.2644 67.2741L32.5985 68.8744L30.4094 69.4676L32.1794 76L30.2451 76.5241L28.4752 69.9916L26.1934 70.6099Z" fill="white"/>
<path d="M39.1738 74.2541C36.6836 74.9288 34.7617 73.709 34.0619 71.1261C33.3746 68.5896 34.3768 66.5526 36.9596 65.8528C39.4499 65.1781 41.3865 66.4063 42.0831 68.9776C42.7798 71.5489 41.7103 73.5668 39.1738 74.2541ZM38.7808 72.62C40.0085 72.2874 40.5535 71.1327 40.1173 69.5227C39.6748 67.8896 38.6183 67.1564 37.379 67.4922C36.1049 67.8374 35.5799 68.9742 36.0161 70.5842C36.4586 72.2173 37.5067 72.9652 38.7808 72.62Z" fill="white"/>
<path d="M52.5663 70.4763L51.4365 68.8305L48.5525 69.6119L48.4198 71.5998L46.5434 72.1081L47.363 63.4319L49.2547 62.5215L54.5584 69.9365L52.5663 70.4763ZM48.6351 68.0354L50.5462 67.5176L48.8327 65.0478L48.6351 68.0354Z" fill="white"/>
<path d="M57.169 66.2205L56.752 66.3335L57.5115 69.1364L55.5888 69.6573L53.3921 61.5497C54.0219 61.3044 55.0686 60.9462 55.6825 60.7799C58.1379 60.1146 59.4732 60.9588 59.8874 62.4877C60.3393 64.1555 59.4739 65.596 57.169 66.2205ZM56.3723 64.932L56.824 64.8096C57.797 64.546 58.1854 63.8688 57.9594 63.0349C57.7304 62.1894 57.073 61.9199 56.2738 62.1365L55.66 62.3028L56.3723 64.932Z" fill="white"/>
<path d="M64.3401 64.2775L63.9232 64.3905L64.6826 67.1934L62.7599 67.7144L60.5632 59.6067C61.193 59.3614 62.2397 59.0032 62.8536 58.8369C65.3091 58.1716 66.6443 59.0158 67.0586 60.5447C67.5105 62.2126 66.645 63.653 64.3401 64.2775ZM63.5435 62.989L63.9952 62.8666C64.9681 62.603 65.3565 61.9259 65.1306 61.0919C64.9015 60.2464 64.2441 59.9769 63.445 60.1935L62.8311 60.3598L63.5435 62.989Z" fill="white"/>
<path d="M74.6954 62.7524L75.0389 64.3874L69.9311 65.7714L67.7343 57.6637L69.657 57.1428L71.4175 63.6405L74.6954 62.7524Z" fill="white"/>
<path d="M78.4549 60.4034L79.2269 63.2527L77.3043 63.7736L76.5323 60.9244L72.4436 56.3878L74.401 55.8574L77.088 58.9835L77.7136 54.9599L79.5783 54.4546L78.4549 60.4034Z" fill="white"/>
</g>
</g>
</svg>
