<svg width="24" height="24" viewBox="0 0 24 24" fill="none" xmlns="http://www.w3.org/2000/svg">
<g id="Frame" clip-path="url(#clip0_1022_2896)">
<g id="Group">
<path id="Vector" d="M22.3513 15.4804C22.0687 14.4015 21.2982 13.22 20.1937 12.0128C21.2981 10.8055 22.0687 9.59832 22.3513 8.54517C22.5824 7.67187 22.5054 6.87561 22.1458 6.23348C21.2211 4.64095 18.858 4.40979 16.1096 5.00054C15.2363 2.32926 13.875 0.428528 11.9999 0.428528C10.279 0.428528 8.81488 2.17518 7.8902 5.00059C7.55628 4.92355 7.24807 4.87217 6.91414 4.8208C4.39694 4.46121 2.57325 4.94921 1.85408 6.23353C1.49449 6.87566 1.4174 7.67192 1.64857 8.54522C1.93112 9.62403 2.70167 10.8056 3.80619 12.0128C2.70172 13.22 1.93112 14.4273 1.64857 15.4804C1.4174 16.3537 1.49444 17.15 1.85408 17.7921C2.44484 18.7938 3.67777 19.3075 5.39871 19.3075C5.86105 19.3075 6.37477 19.2562 6.91414 19.1791C7.22235 19.1277 7.55628 19.0764 7.8902 18.9993C8.78921 21.8247 10.279 23.5714 11.9999 23.5714C13.875 23.5714 15.2363 21.6707 16.0839 18.9993C16.9829 19.2048 17.8306 19.3075 18.6268 19.3075C20.245 19.3075 21.5036 18.8452 22.1458 17.7664C22.5054 17.1499 22.5824 16.3537 22.3513 15.4804ZM18.6268 6.23348C19.7313 6.23348 20.5276 6.51602 20.8358 7.02974C20.99 7.31228 21.0156 7.69758 20.8872 8.15992C20.6817 8.90481 20.091 9.88086 19.1406 10.9597C18.4984 10.3689 17.7535 9.77811 16.9573 9.21302C16.8545 8.28834 16.7004 7.36366 16.5206 6.51602C17.2912 6.31057 18.0104 6.23348 18.6268 6.23348ZM13.7722 15.0437C13.1815 15.3776 12.565 15.6858 11.9999 15.9684C11.3988 15.6804 10.8077 15.372 10.2276 15.0437C9.61114 14.7098 9.07176 14.3502 8.53233 13.9906C8.48096 13.3485 8.45529 12.6806 8.45529 12.0128C8.45529 11.3449 8.48096 10.6771 8.53233 10.0349C9.07171 9.67536 9.61114 9.34143 10.2276 8.98185C10.8077 8.65352 11.3988 8.34511 11.9999 8.05717C12.6011 8.34511 13.1922 8.65352 13.7722 8.98185C14.3887 9.31577 14.9281 9.67536 15.4675 10.0349C15.5189 10.6771 15.5446 11.3449 15.5446 12.0128C15.5446 12.6806 15.5189 13.3484 15.4675 13.9906C14.9538 14.3502 14.3887 14.7098 13.7722 15.0437ZM15.2363 15.9684C15.1593 16.3794 15.0822 16.7647 15.0052 17.15C14.6199 17.0216 14.2346 16.8931 13.8493 16.739L14.5428 16.3537C14.774 16.251 15.0052 16.0968 15.2363 15.9684ZM10.1506 16.7647C9.76527 16.9188 9.38002 17.0472 8.99472 17.15C8.91768 16.7647 8.84059 16.3794 8.76355 15.9684C8.99472 16.0968 9.22589 16.251 9.45706 16.3794L10.1506 16.7647ZM6.91414 12.809C6.58022 12.5265 6.27201 12.2696 5.96375 12.0128C6.2463 11.7559 6.58022 11.4734 6.91414 11.2165V12.809ZM8.76355 8.05717C8.84059 7.64621 8.91768 7.26091 8.99472 6.87561C9.38002 6.97836 9.7396 7.13249 10.1506 7.26091L9.45706 7.64621C9.22589 7.77462 8.99472 7.92875 8.76355 8.05717ZM13.8493 7.26091C14.2346 7.10678 14.6456 6.97836 15.0052 6.84995C15.0822 7.23524 15.1593 7.62049 15.2363 8.03151C15.0052 7.90309 14.774 7.74896 14.5428 7.62054C14.3117 7.51779 14.0805 7.38937 13.8493 7.26091ZM17.06 11.2166C17.394 11.4991 17.7022 11.7559 18.0104 12.0128C17.7279 12.2696 17.394 12.5522 17.06 12.8091C17.06 12.5265 17.0857 12.2697 17.0857 12.0128C17.0857 11.7559 17.0857 11.4734 17.06 11.2166ZM9.66252 4.66667C10.3304 2.97139 11.2037 1.96967 11.9999 1.96967C12.7962 1.96967 13.6695 2.97144 14.3373 4.641C14.4401 4.87217 14.5171 5.12906 14.6199 5.38589C13.7722 5.64272 12.8989 5.97664 12.0256 6.36194C11.1523 5.97664 10.2533 5.64272 9.40568 5.38589C9.48272 5.12901 9.55981 4.89784 9.66252 4.66667ZM3.18972 7.00408C3.47227 6.49036 4.26853 6.23353 5.34734 6.23353C5.9638 6.23353 6.68298 6.31057 7.47924 6.49036C7.29944 7.338 7.14531 8.23701 7.04256 9.18735C6.28726 9.72351 5.56662 10.3069 4.88495 10.934C3.90889 9.88091 3.3438 8.90486 3.13829 8.13426C3.00993 7.67192 3.03564 7.28662 3.18972 7.00408ZM3.18972 17.0215C3.03559 16.739 3.00993 16.3537 3.13834 15.8913C3.34385 15.1464 3.93461 14.1704 4.885 13.0916C5.52713 13.6823 6.27201 14.2731 7.04261 14.8382C7.14536 15.7886 7.27378 16.6876 7.47929 17.5352C5.27029 17.9976 3.65206 17.8178 3.18972 17.0215ZM14.3373 19.3846C13.6695 21.0541 12.7962 22.0559 11.9999 22.0559C11.2037 22.0559 10.3304 21.0541 9.66252 19.3589C9.55976 19.1277 9.48272 18.8709 9.40568 18.614C10.2533 18.3572 11.1266 18.0233 12.0256 17.638C12.8989 18.0233 13.7723 18.3572 14.6199 18.614C14.5171 18.8966 14.4401 19.1277 14.3373 19.3846ZM20.8101 17.0215C20.3478 17.8178 18.7296 18.0233 16.4949 17.5609C16.7004 16.6876 16.8289 15.7886 16.9316 14.8639C17.7279 14.2988 18.4471 13.708 19.1149 13.1172C20.091 14.1703 20.656 15.1464 20.8616 15.917C20.9899 16.3537 20.9643 16.739 20.8101 17.0215Z" fill="#4DCFE0"/>
<path id="Vector_2" d="M11.9999 9.70105C10.7157 9.70105 9.68823 10.7285 9.68823 12.0127C9.68823 13.297 10.7157 14.3244 11.9999 14.3244C13.2842 14.3244 14.3116 13.297 14.3116 12.0127C14.3116 10.7285 13.2842 9.70105 11.9999 9.70105Z" fill="#D4E1F4"/>
</g>
</g>
<defs>
<clipPath id="clip0_1022_2896">
<rect width="23.1429" height="23.1429" fill="white" transform="translate(0.428528 0.428528)"/>
</clipPath>
</defs>
</svg>
