<svg width="20" height="22" viewBox="0 0 20 22" fill="none" xmlns="http://www.w3.org/2000/svg">
<g id="Frame">
<path id="Vector" d="M0.714286 5.67188H19.2857C19.6802 5.67188 20 5.36409 20 4.98438V3.26562C20 2.88591 19.6802 2.57812 19.2857 2.57812H0.714286C0.319777 2.57812 0 2.88591 0 3.26562V4.98438C0 5.36409 0.319777 5.67188 0.714286 5.67188ZM0.714286 12.5469H19.2857C19.6802 12.5469 20 12.2391 20 11.8594V10.1406C20 9.76091 19.6802 9.45312 19.2857 9.45312H0.714286C0.319777 9.45312 0 9.76091 0 10.1406V11.8594C0 12.2391 0.319777 12.5469 0.714286 12.5469ZM0.714286 19.4219H19.2857C19.6802 19.4219 20 19.1141 20 18.7344V17.0156C20 16.6359 19.6802 16.3281 19.2857 16.3281H0.714286C0.319777 16.3281 0 16.6359 0 17.0156V18.7344C0 19.1141 0.319777 19.4219 0.714286 19.4219Z" fill="#0278BE"/>
</g>
</svg>
