<svg width="192" height="43" viewBox="0 0 192 43" fill="none" xmlns="http://www.w3.org/2000/svg">
<path d="M60.0532 17.9146C60.5852 16.9439 61.379 16.1363 62.3472 15.5805C63.3335 15.0185 64.4555 14.7281 65.5953 14.7399C66.9153 14.7071 68.2151 15.0623 69.3288 15.76C70.3743 16.45 71.168 17.451 71.5937 18.6165H70.063C69.7196 17.7812 69.1247 17.0692 68.3581 16.5762C67.5478 16.1081 66.6277 15.8552 65.6882 15.8424C64.7486 15.8295 63.8217 16.057 62.9985 16.5027C62.2283 16.957 61.6075 17.62 61.2106 18.4125C60.779 19.3092 60.5552 20.289 60.5552 21.2812C60.5552 22.2733 60.779 23.2531 61.2106 24.1499C61.6149 24.9359 62.2397 25.5915 63.0109 26.0392C63.8342 26.4833 64.76 26.7109 65.6989 26.7002C66.6378 26.6895 67.5579 26.4407 68.3705 25.978C69.1335 25.4935 69.7282 24.7917 70.0755 23.9662H71.6062C71.1829 25.1366 70.3834 26.1394 69.3288 26.8227C68.2136 27.5162 66.9142 27.8685 65.5953 27.8347C64.4557 27.8495 63.3332 27.5605 62.3472 26.9982C61.3811 26.447 60.5875 25.6451 60.0532 24.6803C59.4999 23.6358 59.211 22.4753 59.211 21.2975C59.211 20.1196 59.4999 18.9592 60.0532 17.9146Z" fill="#fff"/>
<path d="M77.3015 27.0227C76.3231 26.4703 75.5191 25.6625 74.9785 24.6885C74.42 23.6441 74.1282 22.4817 74.1282 21.3016C74.1282 20.1215 74.42 18.9591 74.9785 17.9146C75.5191 16.9407 76.3231 16.1329 77.3015 15.5805C78.3097 15.0318 79.4431 14.7439 80.5953 14.7439C81.7475 14.7439 82.8808 15.0318 83.889 15.5805C84.866 16.132 85.6675 16.9402 86.2037 17.9146C86.7564 18.9609 87.0449 20.1226 87.0449 21.3016C87.0449 22.4806 86.7564 23.6423 86.2037 24.6885C85.6675 25.6629 84.866 26.4712 83.889 27.0227C82.88 27.5688 81.747 27.8552 80.5953 27.8552C79.4436 27.8552 78.3106 27.5688 77.3015 27.0227ZM83.2004 26.076C83.9815 25.626 84.6161 24.9664 85.0298 24.1744C85.4721 23.2807 85.702 22.2997 85.702 21.3057C85.702 20.3117 85.4721 19.3307 85.0298 18.437C84.6135 17.6489 83.9794 16.9925 83.2004 16.5436C82.3999 16.1099 81.5008 15.8825 80.587 15.8825C79.6731 15.8825 78.7741 16.1099 77.9736 16.5436C77.1946 16.9925 76.5604 17.6489 76.1442 18.437C75.7018 19.3307 75.472 20.3117 75.472 21.3057C75.472 22.2997 75.7018 23.2807 76.1442 24.1744C76.5578 24.9664 77.1924 25.626 77.9736 26.076C78.7741 26.5096 79.6731 26.737 80.587 26.737C81.5008 26.737 82.3999 26.5096 83.2004 26.076Z" fill="#fff"/>
<path d="M97.5368 15.6621C98.5387 16.1482 99.3653 16.9243 99.9055 17.8861C100.479 18.9474 100.765 20.1365 100.735 21.3383C100.765 22.531 100.479 23.7107 99.9055 24.762C99.366 25.7193 98.5386 26.489 97.5368 26.9655C96.3705 27.5046 95.0915 27.766 93.8034 27.7286H89.9413V14.8909H93.8034C95.0924 14.8538 96.3719 15.1182 97.5368 15.6621ZM97.9766 25.2598C98.9279 24.3213 99.4036 23.0141 99.4036 21.3383C99.4036 19.6625 98.9279 18.3431 97.9766 17.3801C97.0308 16.4361 95.6452 15.9641 93.82 15.9641H91.2646V26.6717H93.82C95.6452 26.6663 97.0308 26.1956 97.9766 25.2598Z" fill="#fff"/>
<path d="M104.966 15.9391V20.7298H109.911V21.7948H104.966V26.663H110.471V27.7281H103.66V14.874H110.471V15.9391H104.966Z" fill="#fff"/>
<path d="M129.4 14.8908L125.704 27.7285H124.248L120.962 16.7801L117.602 27.7244H116.183L112.562 14.8704H113.981L116.967 26.1289L120.307 14.8704H121.763L124.994 26.1656L128.002 14.9071L129.4 14.8908Z" fill="#fff"/>
<path d="M133.229 14.8911V27.7288H131.922V14.8911H133.229Z" fill="#fff"/>
<path d="M146.557 27.7288H145.25L138.041 16.9314V27.7288H136.734V14.8911H138.041L145.267 25.6722V14.8911H146.574L146.557 27.7288Z" fill="#fff"/>
<path d="M160.313 18.6368C159.961 17.8181 159.365 17.1236 158.604 16.6455C157.796 16.1504 156.859 15.898 155.907 15.9191C154.992 15.905 154.089 16.1333 153.294 16.5802C152.516 17.0271 151.882 17.6805 151.465 18.4654C151.022 19.3491 150.793 20.3207 150.793 21.3056C150.793 22.2904 151.022 23.2621 151.465 24.1457C151.881 24.9338 152.515 25.5902 153.294 26.0391C154.068 26.4584 154.935 26.685 155.818 26.6992C156.702 26.7135 157.576 26.5149 158.363 26.1208C159.089 25.736 159.696 25.1648 160.118 24.4681C160.567 23.7043 160.821 22.8443 160.856 21.9626H155.385V20.9138H162.254V21.8524C162.207 22.9317 161.886 23.9823 161.321 24.9088C160.775 25.8082 160 26.5522 159.073 27.0675C158.106 27.5995 157.015 27.8712 155.907 27.855C154.758 27.8743 153.624 27.5926 152.622 27.0389C151.644 26.4866 150.84 25.6787 150.299 24.7048C149.74 23.6603 149.449 22.4979 149.449 21.3178C149.449 20.1377 149.74 18.9753 150.299 17.9309C150.84 16.9569 151.644 16.1491 152.622 15.5967C153.692 15.0171 154.9 14.7292 156.121 14.7629C157.342 14.7966 158.531 15.1507 159.566 15.7885C160.615 16.4779 161.413 17.4786 161.844 18.645L160.313 18.6368Z" fill="#fff"/>
<path d="M166.473 26.6801H171.161V27.7288H165.166V14.8911H166.473V26.6801Z" fill="#fff"/>
<path d="M174.857 15.9391V20.7298H179.801V21.7948H174.857V26.663H180.353V27.7281H173.55V14.874H180.353V15.9391H174.857Z" fill="#fff"/>
<path d="M191.097 14.8911V15.9643H187.476V27.737H186.161V15.9643H182.519V14.8993L191.097 14.8911Z" fill="#fff"/>
<path d="M7.60598 21.2343L21.4718 7.59456C22.4809 6.60167 23.0478 5.25513 23.0478 3.85111C23.0478 2.44709 22.4809 1.10055 21.4718 0.107666L0 21.2294L0.0149571 21.2441L0 21.2588L21.4593 42.3609C22.4684 41.368 23.0354 40.0215 23.0354 38.6175C23.0354 37.2134 22.4684 35.8669 21.4593 34.874L7.60598 21.2343Z" fill="#fff"/>
<path d="M50.9811 21.3127L29.5093 0.181152C29.009 0.672454 28.6121 1.25597 28.3413 1.89831C28.0705 2.54065 27.9312 3.22921 27.9312 3.9246C27.9312 4.61998 28.0705 5.30854 28.3413 5.95088C28.6121 6.59323 29.009 7.17674 29.5093 7.66804L43.3726 21.3078L29.5093 34.9475C29.009 35.4388 28.6121 36.0223 28.3413 36.6646C28.0705 37.307 27.9312 37.9956 27.9312 38.6909C27.9312 39.3863 28.0705 40.0749 28.3413 40.7172C28.6121 41.3596 29.009 41.9431 29.5093 42.4344L50.9811 21.3127Z" fill="#fff"/>
<path d="M36.0156 25.8594H18.206C18.206 25.8594 16.6704 25.082 17.9343 23.7234C17.9343 23.7234 18.1337 23.4782 18.7869 23.2967C19.1349 23.207 19.4941 23.1657 19.8538 23.1741C20.3674 23.1741 21.4344 22.9779 20.7089 21.07C20.3418 20.0748 19.8706 19.1199 19.3029 18.2204C19.3029 18.2204 17.2138 15.0619 16.6703 14.6303C16.6703 14.6303 18.1262 14.5788 20.3898 16.4082C21.3847 17.2341 22.3116 18.1361 23.162 19.1057C23.162 19.1057 26.0388 22.2128 27.6717 23.2305C27.6717 23.233 30.2145 25.3665 36.0156 25.8594Z" fill="#fff"/>
</svg>
